<?xml version="1.0" encoding="UTF-8" standalone="no"?>
<!-- Created with Inkscape (http://www.inkscape.org/) -->

<svg
   width="86.589935mm"
   height="19.638245mm"
   viewBox="0 0 86.589935 19.638245"
   version="1.1"
   id="svg5"
   inkscape:version="1.1 (c68e22c387, 2021-05-23)"
   sodipodi:docname="coupang.svg"
   xmlns:inkscape="http://www.inkscape.org/namespaces/inkscape"
   xmlns:sodipodi="http://sodipodi.sourceforge.net/DTD/sodipodi-0.dtd"
   xmlns="http://www.w3.org/2000/svg"
   xmlns:svg="http://www.w3.org/2000/svg">
  <sodipodi:namedview
     id="namedview7"
     pagecolor="#ffffff"
     bordercolor="#666666"
     borderopacity="1.0"
     inkscape:pageshadow="2"
     inkscape:pageopacity="0.0"
     inkscape:pagecheckerboard="0"
     inkscape:document-units="mm"
     showgrid="false"
     fit-margin-top="0"
     fit-margin-left="0"
     fit-margin-right="0"
     fit-margin-bottom="0"
     inkscape:zoom="1.1340301"
     inkscape:cx="198.40744"
     inkscape:cy="88.181083"
     inkscape:window-width="1920"
     inkscape:window-height="1017"
     inkscape:window-x="-8"
     inkscape:window-y="-8"
     inkscape:window-maximized="1"
     inkscape:current-layer="layer1" />
  <defs
     id="defs2">
    <clipPath
       clipPathUnits="userSpaceOnUse"
       id="clipPath21">
      <path
         d="M 0,0 H 177.8 V 40 H 0 Z"
         id="path19" />
    </clipPath>
  </defs>
  <g
     inkscape:label="Layer 1"
     inkscape:groupmode="layer"
     id="layer1"
     transform="translate(-49.948535,-94.958258)">
    <g
       id="g15"
       transform="matrix(0.35277777,0,0,-0.35277777,24.53794,113.73603)">
      <g
         id="g17"
         clip-path="url(#clipPath21)">
        <g
           id="g23"
           transform="translate(92.0137,21.5693)">
          <path
             d="m 0,0 c 0,-1.151 -0.773,-5.169 -5.525,-5.169 -4.769,0 -5.525,4.018 -5.525,5.169 v 8.157 c 0,1.151 0.756,5.168 5.525,5.168 C -0.773,13.325 0,9.308 0,8.157 Z m 4.411,13.512 c -1.233,2.272 -3.637,4.891 -8.744,4.891 -3.266,0 -5.568,-1.39 -6.974,-2.774 v 1.884 c 0,0.184 -0.155,0.339 -0.339,0.339 h -4.527 c -0.185,0 -0.34,-0.155 -0.34,-0.339 v -37.962 c 0,-0.183 0.155,-0.338 0.34,-0.338 h 4.866 c 0.185,0 0.34,0.155 0.34,0.338 V -7.593 c 1.462,-1.283 3.579,-2.524 6.664,-2.524 5.111,0 7.51,2.618 8.744,4.89 1.242,2.283 1.335,4.851 1.335,5.363 V 7.92 C 5.746,8.661 5.605,11.316 4.411,13.512"
             style="fill:#f7552f;fill-opacity:1;fill-rule:nonzero;stroke:none"
             id="path25" />
        </g>
        <g
           id="g27"
           transform="translate(28.4268,21.708)">
          <path
             d="m 0,0 c 0,-1.151 0.756,-5.169 5.524,-5.169 4.77,0 5.525,4.018 5.525,5.169 v 8.157 c 0,1.151 -0.755,5.168 -5.525,5.168 C 0.756,13.325 0,9.308 0,8.157 Z m -5.546,7.92 c 0,0.512 0.093,3.081 1.335,5.363 1.234,2.272 4.036,4.891 9.735,4.891 5.7,0 8.501,-2.619 9.736,-4.891 1.241,-2.282 1.334,-4.851 1.334,-5.363 V 0.137 c 0,-0.512 -0.093,-3.08 -1.334,-5.363 -1.235,-2.273 -4.036,-4.89 -9.736,-4.89 -5.699,0 -8.501,2.617 -9.735,4.89 -1.242,2.283 -1.335,4.851 -1.335,5.363 z"
             style="fill:#a35a17;fill-opacity:1;fill-rule:nonzero;stroke:none"
             id="path29" />
        </g>
        <g
           id="g31"
           transform="translate(71.1279,39.083)">
          <path
             d="m 0,0 c 0,0.184 -0.154,0.339 -0.339,0.339 h -4.867 c -0.184,0 -0.339,-0.155 -0.339,-0.339 v -17.374 c 0,-1.151 -0.756,-5.169 -5.525,-5.169 -4.769,0 -5.525,4.018 -5.525,5.169 V 0 c 0,0.184 -0.155,0.339 -0.339,0.339 h -4.867 c -0.184,0 -0.339,-0.155 -0.339,-0.339 v -17.234 c 0,-0.512 0.093,-3.08 1.335,-5.363 1.233,-2.272 3.637,-4.89 8.744,-4.89 1.716,0 3.099,0.286 4.223,0.873 1.114,0.579 2.043,1.244 2.774,1.985 v -1.969 c 0,-0.184 0.155,-0.339 0.339,-0.339 h 4.526 c 0.185,0 0.339,0.155 0.339,0.339 z"
             style="fill:#a35a17;fill-opacity:1;fill-rule:nonzero;stroke:none"
             id="path33" />
        </g>
        <g
           id="g35"
           transform="translate(116.8682,21.2305)">
          <path
             d="m 0,0 c 0,-1.096 -0.74,-4.86 -5.4,-4.86 -4.658,0 -5.4,3.764 -5.4,4.86 v 0.392 c 0,1.096 0.742,4.86 5.4,4.86 C -0.74,5.252 0,1.488 0,0.392 Z m 5.096,8.595 c 0,2.21 -0.995,7.416 -5.896,9.408 -4.839,1.968 -11.147,-0.227 -13.082,-1.062 l -0.44,-0.19 c -0.17,-0.074 -0.257,-0.273 -0.184,-0.443 l 1.388,-4.007 c 0.079,-0.204 0.21,-0.301 0.4,-0.229 0.06,0.023 0.123,0.053 0.19,0.087 1.854,0.946 6.787,2.638 9.819,1.214 C 0.032,12.085 0,8.919 0,8.472 V 7.714 C -1.435,8.721 -3.405,9.744 -6.271,9.79 -11.355,9.79 -13.761,7.309 -14.988,5.228 -16.24,2.896 -16.326,0.537 -16.326,0.071 c 0,-0.482 0.086,-2.84 1.338,-5.17 1.227,-2.084 3.633,-4.563 8.717,-4.563 3.023,0 5.047,1.101 6.529,2.218 v -1.34 c 0,-0.184 0.154,-0.339 0.339,-0.339 h 4.16 c 0.185,0 0.34,0.155 0.34,0.339 V 8.595 Z"
             style="fill:#ffc400;fill-opacity:1;fill-rule:nonzero;stroke:none"
             id="path37" />
        </g>
        <g
           id="g39"
           transform="translate(169.0947,29.7891)">
          <path
             d="m 0,0 c 0,-1.095 -0.74,-4.859 -5.4,-4.859 -4.658,0 -5.4,3.764 -5.4,4.859 v 0.393 c 0,1.096 0.742,4.86 5.4,4.86 C -0.74,5.253 0,1.489 0,0.393 Z m 8.293,10.05 c -2.904,0.119 -4.717,-1.094 -5.857,-2.444 -1.597,1.401 -4.102,2.479 -7.836,2.479 -5.699,0 -8.5,-2.48 -9.735,-4.735 -1.241,-2.258 -1.335,-4.762 -1.335,-5.269 V -0.25 c 0,-0.508 0.094,-2.873 1.335,-5.131 0.611,-1.112 1.488,-2.131 2.776,-2.944 -2.095,-1.187 -4.02,-3.443 -4.02,-7.261 v -2.095 c 0,-0.2 0.155,-0.339 0.339,-0.339 H 0 c 1.871,0 2.893,-1.237 3.174,-2.486 0.314,-1.398 -0.194,-3.48 -2.759,-4.907 l -0.185,-0.103 c -0.171,-0.073 -0.227,-0.272 -0.136,-0.443 l 2.195,-3.896 c 0.092,-0.184 0.304,-0.228 0.474,-0.137 0.074,0.039 1.107,0.658 1.469,0.922 0.38,0.277 0.726,0.57 1.04,0.873 2.789,2.633 3.324,6.133 2.684,8.894 -0.799,3.798 -4.035,6.027 -7.956,6.027 h -11.09 c 0.648,3.41 4.49,3.305 4.975,3.287 H -5.4 c 5.699,0 8.5,2.479 9.735,4.735 1.241,2.258 1.335,4.762 1.335,5.269 v 0.507 c 0,0.369 -0.047,2.171 -0.906,4.069 0.746,0.533 1.897,0.973 3.529,0.906 0.2,0 0.339,0.153 0.339,0.338 v 3.907 c 0,0.184 -0.139,0.34 -0.339,0.34"
             style="fill:#2eb7df;fill-opacity:1;fill-rule:nonzero;stroke:none"
             id="path41" />
        </g>
        <g
           id="g43"
           transform="translate(21.042,17.3936)">
          <path
             d="m 0,0 -4.256,2.19 c -0.166,0.086 -0.373,0.025 -0.46,-0.141 L -4.775,1.918 C -5.493,0.488 -6.906,-1.027 -9.775,-1.027 c -4.77,0 -5.524,4.017 -5.524,5.168 v 8.158 c 0,1.151 0.754,5.168 5.524,5.168 2.869,0 4.282,-1.516 5,-2.945 l 0.059,-0.134 c 0.087,-0.164 0.294,-0.225 0.46,-0.139 L 0,16.437 c 0.165,0.086 0.227,0.294 0.139,0.459 L 0.068,17.063 c -1.252,2.313 -4.017,4.89 -9.843,4.89 -5.699,0 -8.5,-2.618 -9.735,-4.89 -1.241,-2.282 -1.334,-4.851 -1.334,-5.363 V 4.002 c 0,-0.512 0.093,-3.079 1.334,-5.361 1.235,-2.273 4.036,-4.892 9.735,-4.892 h 0.017 c 5.81,0 8.574,2.579 9.826,4.892 L 0.139,-1.192 C 0.227,-1.027 0.165,-0.086 0,0"
             style="fill:#a35a17;fill-opacity:1;fill-rule:nonzero;stroke:none"
             id="path45" />
        </g>
        <g
           id="g47"
           transform="translate(147.3516,35.0869)">
          <path
             d="m 0,0 c -1.233,2.272 -3.637,4.891 -8.743,4.891 -3.269,0 -5.568,-1.391 -6.976,-2.774 V 4 c 0,0.184 -0.155,0.339 -0.339,0.339 h -4.526 C -20.769,4.339 -20.923,4.184 -20.923,4 v -26.598 c 0,-0.184 0.154,-0.339 0.339,-0.339 h 4.866 c 0.185,0 0.339,0.155 0.339,0.339 v 17.651 c 0.095,1.417 1.147,4.947 5.546,4.947 4.77,0 5.524,-4.018 5.524,-5.169 v -17.429 c 0,-0.184 0.156,-0.339 0.339,-0.339 h 4.867 c 0.184,0 0.339,0.155 0.339,0.339 V -5.363 C 1.236,-4.851 1.241,-2.282 0,0"
             style="fill:#88cc2f;fill-opacity:1;fill-rule:nonzero;stroke:none"
             id="path49" />
        </g>
      </g>
    </g>
  </g>
</svg>
